# xmcd
#
# Track frame offsets: 
#        150
#        13137
#        28145
#        42985
#        57122
#        71350
#        83135
#        95147
#        106920
#        118600
#        129530
#        141857
#        155842
#        169882
#        182272
#        193085
#        205140
#        217485
#
# Disc length: 3043 seconds
#
# Revision: 4
# Processed by: cddbd v1.5.1PL0 Copyright (c) Steve Scherf et al.
# Submitted via: ExactAudioCopy v0.95a5
#
DISCID=0c0be112
DTITLE=Gene Autry - The Essential Gene Autry (1933-1946)
DYEAR=1992
DGENRE=Country
TTITLE0=The Yellow Rose Of Texas
TTITLE1=The Last Round-Up
TTITLE2=Tumblin' Tumbleweeds
TTITLE3=Mexicali Rose
TTITLE4=Take Me Back To My Boots and Saddle
TTITLE5=Back In The Saddle Again
TTITLE6=El Rancho Grande
TTITLE7=Blueberry Hill
TTITLE8=The Call Of The Canyon
TTITLE9=You Are My Sunshine
TTITLE10=It Makes No Difference Now
TTITLE11=Amapola
TTITLE12=Maria Elena
TTITLE13=Deep In The Heart Of Texas
TTITLE14=I'm Thinking Tonight Of My Blue Eyes
TTITLE15=(I've Got Spurs That) Jingle, Jangle, Jingle
TTITLE16=Ole Faithful
TTITLE17=Red River Valley
EXTD=
EXTT0=
EXTT1=
EXTT2=
EXTT3=
EXTT4=
EXTT5=
EXTT6=
EXTT7=
EXTT8=
EXTT9=
EXTT10=
EXTT11=
EXTT12=
EXTT13=
EXTT14=
EXTT15=
EXTT16=
EXTT17=
PLAYORDER=
